<?xml version="1.0" standalone="no"?>
<!DOCTYPE svg PUBLIC "-//W3C//DTD SVG 20010904//EN"
 "http://www.w3.org/TR/2001/REC-SVG-20010904/DTD/svg10.dtd">
<svg version="1.0" xmlns="http://www.w3.org/2000/svg"
 width="260.000000pt" height="260.000000pt" viewBox="0 0 260.000000 260.000000"
 preserveAspectRatio="xMidYMid meet">
<metadata>
Created by potrace 1.14, written by Peter Selinger 2001-2017
</metadata>
<g transform="translate(0.000000,260.000000) scale(0.100000,-0.100000)"
fill="#000000" stroke="none">
<path d="M150 2471 c0 -4 11 -6 25 -3 14 2 25 6 25 8 0 2 -11 4 -25 4 -14 0
-25 -4 -25 -9z"/>
<path d="M258 2473 c7 -3 16 -2 19 1 4 3 -2 6 -13 5 -11 0 -14 -3 -6 -6z"/>
<path d="M327 2472 c6 -4 13 -21 16 -37 4 -27 4 -27 6 8 1 29 -3 37 -16 37
-12 0 -14 -3 -6 -8z"/>
<path d="M197 2399 c7 -7 15 -10 18 -7 3 3 -2 9 -12 12 -14 6 -15 5 -6 -5z"/>
<path d="M142 2380 c0 -14 2 -19 5 -12 2 6 2 18 0 25 -3 6 -5 1 -5 -13z"/>
<path d="M350 2380 c0 -19 -7 -20 -97 -22 -54 -1 -77 -3 -50 -5 39 -3 47 -8
47 -24 0 -12 -7 -19 -19 -19 -11 0 -22 -4 -25 -9 -4 -5 3 -7 14 -4 18 5 20 0
20 -45 0 -47 -3 -52 -47 -91 -27 -22 -43 -40 -38 -41 6 0 29 18 53 40 41 39
62 49 62 30 0 -5 20 -23 45 -40 25 -17 45 -26 45 -20 0 5 -3 10 -7 10 -5 0
-28 18 -53 39 -42 36 -45 42 -42 80 l4 40 72 4 71 3 -72 2 c-66 2 -73 4 -73
22 0 17 7 20 50 20 47 0 50 2 50 25 0 14 -2 25 -5 25 -3 0 -5 -9 -5 -20z"/>
<path d="M113 2303 c9 -2 23 -2 30 0 6 3 -1 5 -18 5 -16 0 -22 -2 -12 -5z"/>
<path d="M1829 2183 c-13 -16 -12 -17 4 -4 9 7 17 15 17 17 0 8 -8 3 -21 -13z"/>
<path d="M86 2077 c-8 -31 -7 -65 2 -51 4 7 16 14 27 17 18 4 18 5 -3 6 -19 1
-21 4 -12 20 6 11 6 22 1 25 -5 3 -11 -4 -15 -17z"/>
<path d="M370 2075 c-19 -22 -8 -25 13 -3 9 10 13 18 8 18 -5 0 -14 -7 -21
-15z"/>
<path d="M1738 2053 l-24 -36 -209 -6 c-116 -2 -298 -5 -405 -5 -227 -1 -209
7 -292 -123 -79 -122 -168 -243 -179 -243 -6 0 -25 11 -42 24 -44 32 -57 39
-57 29 0 -5 15 -18 33 -28 l32 -20 -45 -6 -45 -6 40 -2 40 -2 -40 -20 c-25
-12 -30 -17 -15 -14 14 3 37 8 53 11 15 4 27 2 27 -3 0 -6 -19 -43 -41 -84
-67 -120 -69 -123 -69 -138 0 -28 28 10 79 108 29 54 84 140 123 191 39 51 99
138 134 192 35 54 70 100 77 102 6 3 184 7 394 10 l381 6 84 -120 c201 -288
308 -453 308 -473 0 -11 -91 -145 -170 -251 -42 -56 -153 -243 -181 -306 l-21
-45 -386 -3 c-213 -1 -392 1 -398 5 -12 9 -60 87 -127 208 -78 139 -237 362
-268 373 -20 8 -7 -19 35 -69 49 -61 187 -263 220 -324 12 -22 42 -71 67 -110
25 -38 48 -77 51 -86 4 -10 22 -19 45 -21 39 -5 449 -1 652 6 l115 4 45 69
c26 39 66 104 90 146 l45 77 48 0 49 0 -17 -32 c-9 -18 -20 -35 -25 -38 -4 -3
-4 -12 1 -20 7 -11 11 -8 21 13 7 15 16 27 21 27 5 0 7 4 4 9 -3 4 3 16 14 26
25 22 26 35 3 29 -10 -2 -38 -1 -62 3 l-44 8 49 60 c28 33 76 98 107 144 l57
83 -31 57 c-29 51 -256 399 -269 411 -13 13 -59 79 -80 117 l-23 41 20 29 c27
38 35 53 30 53 -2 0 -15 -17 -29 -37z"/>
<path d="M1983 2083 c9 -2 25 -2 35 0 9 3 1 5 -18 5 -19 0 -27 -2 -17 -5z"/>
<path d="M2048 2083 c6 -2 18 -2 25 0 6 3 1 5 -13 5 -14 0 -19 -2 -12 -5z"/>
<path d="M2543 2083 c9 -2 23 -2 30 0 6 3 -1 5 -18 5 -16 0 -22 -2 -12 -5z"/>
<path d="M218 2073 c7 -3 16 -2 19 1 4 3 -2 6 -13 5 -11 0 -14 -3 -6 -6z"/>
<path d="M386 2051 c-3 -4 7 -19 22 -32 l27 -24 -23 26 c-12 14 -19 29 -15 32
3 4 4 7 0 7 -3 0 -8 -4 -11 -9z"/>
<path d="M188 1953 c7 -3 16 -2 19 1 4 3 -2 6 -13 5 -11 0 -14 -3 -6 -6z"/>
<path d="M54 1898 l-19 -23 23 19 c21 18 27 26 19 26 -2 0 -12 -10 -23 -22z"/>
<path d="M208 1743 c7 -3 16 -2 19 1 4 3 -2 6 -13 5 -11 0 -14 -3 -6 -6z"/>
<path d="M443 1743 c9 -2 23 -2 30 0 6 3 -1 5 -18 5 -16 0 -22 -2 -12 -5z"/>
<path d="M310 1713 c0 -30 103 -74 165 -72 18 1 2 7 -39 15 -50 10 -78 22 -98
41 -15 15 -28 22 -28 16z"/>
<path d="M790 1656 c0 -2 7 -7 16 -10 8 -3 12 -2 9 4 -6 10 -25 14 -25 6z"/>
<path d="M726 1642 c-2 -4 7 -8 21 -7 30 0 42 -21 16 -28 -16 -4 -16 -5 -1 -6
23 -1 32 17 18 34 -13 16 -46 20 -54 7z"/>
<path d="M841 1423 c0 -11 3 -13 6 -5 2 6 10 9 15 6 7 -4 8 -2 4 4 -11 18 -26
14 -25 -5z"/>
<path d="M946 1425 c-13 -10 -16 -20 -11 -32 8 -17 8 -17 13 2 2 11 9 26 14
33 13 16 8 15 -16 -3z"/>
<path d="M983 1423 c4 -3 1 -13 -6 -22 -11 -14 -10 -14 5 -2 16 12 16 31 1 31
-4 0 -3 -3 0 -7z"/>
<path d="M1018 1395 l4 -33 24 21 c25 22 31 37 14 37 -5 0 -9 -5 -7 -11 1 -6
-4 -14 -10 -16 -7 -3 -13 2 -13 11 0 8 -4 17 -8 20 -4 2 -6 -10 -4 -29z"/>
<path d="M1224 1416 c-3 -8 -4 -23 -1 -33 3 -12 5 -9 6 9 0 14 7 29 14 31 9 4
9 6 -1 6 -7 1 -15 -5 -18 -13z"/>
<path d="M1631 1419 c1 -21 17 -57 18 -40 1 8 16 -3 36 -25 l34 -39 -1 45 c-1
43 -1 43 -7 11 l-6 -34 -37 48 c-21 27 -38 42 -37 34z"/>
<path d="M1102 1400 c0 -14 2 -19 5 -12 2 6 2 18 0 25 -3 6 -5 1 -5 -13z"/>
<path d="M1333 1413 c-8 -3 -13 -21 -12 -46 1 -23 3 -34 6 -25 2 10 17 18 36
21 l32 4 -33 1 c-26 2 -33 6 -30 20 2 9 10 16 17 14 7 -1 10 2 6 8 -3 5 -7 10
-8 9 -1 0 -8 -3 -14 -6z"/>
<path d="M1410 1410 l-25 -8 28 -1 c15 -1 27 4 27 9 0 6 -1 10 -2 9 -2 -1 -14
-5 -28 -9z"/>
<path d="M1468 1413 c7 -3 16 -2 19 1 4 3 -2 6 -13 5 -11 0 -14 -3 -6 -6z"/>
<path d="M1512 1400 c0 -14 2 -19 5 -12 2 6 2 18 0 25 -3 6 -5 1 -5 -13z"/>
<path d="M1560 1410 c-8 -5 -11 -12 -7 -17 5 -4 12 -1 17 6 4 8 15 11 25 8 9
-4 14 -3 10 3 -8 12 -25 13 -45 0z"/>
<path d="M1172 1390 c0 -14 2 -19 5 -12 2 6 2 18 0 25 -3 6 -5 1 -5 -13z"/>
<path d="M830 1371 c0 -17 2 -31 4 -31 8 0 13 51 5 56 -5 3 -9 -9 -9 -25z"/>
<path d="M860 1376 c0 -9 30 -14 35 -6 4 6 -3 10 -14 10 -12 0 -21 -2 -21 -4z"/>
<path d="M1441 1364 c0 -11 3 -14 6 -6 3 7 2 16 -1 19 -3 4 -6 -2 -5 -13z"/>
<path d="M891 1334 c0 -11 3 -14 6 -6 3 7 2 16 -1 19 -3 4 -6 -2 -5 -13z"/>
<path d="M1138 1333 c7 -3 16 -2 19 1 4 3 -2 6 -13 5 -11 0 -14 -3 -6 -6z"/>
<path d="M1796 1193 c-6 -14 -5 -15 5 -6 7 7 10 15 7 18 -3 3 -9 -2 -12 -12z"/>
<path d="M1828 1183 c7 -3 16 -2 19 1 4 3 -2 6 -13 5 -11 0 -14 -3 -6 -6z"/>
<path d="M1780 1136 c0 -2 8 -10 18 -17 15 -13 16 -12 3 4 -13 16 -21 21 -21
13z"/>
<path d="M1760 1100 c0 -6 7 -10 15 -10 8 0 15 2 15 4 0 2 -7 6 -15 10 -8 3
-15 1 -15 -4z"/>
<path d="M1748 1073 c7 -3 16 -2 19 1 4 3 -2 6 -13 5 -11 0 -14 -3 -6 -6z"/>
<path d="M1720 1061 c0 -5 5 -13 10 -16 6 -3 10 -2 10 4 0 5 -4 13 -10 16 -5
3 -10 2 -10 -4z"/>
<path d="M1780 1052 c0 -6 -8 -13 -17 -15 -16 -4 -16 -5 -1 -6 18 -1 34 16 24
26 -3 4 -6 1 -6 -5z"/>
<path d="M2011 1016 c2 -2 15 -9 29 -15 24 -11 24 -11 6 3 -16 13 -49 24 -35
12z"/>
<path d="M1685 1001 c-8 -13 32 -33 53 -28 15 4 15 5 -1 6 -10 0 -16 5 -13 10
4 5 -4 7 -16 3 -14 -3 -19 -2 -14 6 4 7 5 12 2 12 -3 0 -7 -4 -11 -9z"/>
<path d="M2077 979 c7 -7 15 -10 18 -7 3 3 -2 9 -12 12 -14 6 -15 5 -6 -5z"/>
<path d="M2126 950 c6 -8 16 -24 22 -35 6 -11 12 -15 12 -8 0 7 -10 22 -22 35
-13 13 -18 17 -12 8z"/>
<path d="M48 853 c7 -3 16 -2 19 1 4 3 -2 6 -13 5 -11 0 -14 -3 -6 -6z"/>
<path d="M343 853 c9 -2 23 -2 30 0 6 3 -1 5 -18 5 -16 0 -22 -2 -12 -5z"/>
<path d="M1945 840 c-3 -6 1 -7 9 -4 18 7 21 14 7 14 -6 0 -13 -4 -16 -10z"/>
<path d="M2090 780 c0 -11 2 -20 4 -20 2 0 6 9 9 20 3 11 1 20 -4 20 -5 0 -9
-9 -9 -20z"/>
<path d="M98 783 c7 -3 16 -2 19 1 4 3 -2 6 -13 5 -11 0 -14 -3 -6 -6z"/>
<path d="M655 780 c-3 -6 1 -7 9 -4 18 7 21 14 7 14 -6 0 -13 -4 -16 -10z"/>
<path d="M182 760 c-17 -27 -15 -35 4 -16 8 9 14 21 12 26 -2 6 -9 1 -16 -10z"/>
<path d="M238 683 c7 -3 16 -2 19 1 4 3 -2 6 -13 5 -11 0 -14 -3 -6 -6z"/>
<path d="M598 683 c12 -2 32 -2 45 0 12 2 2 4 -23 4 -25 0 -35 -2 -22 -4z"/>
<path d="M688 683 c6 -2 18 -2 25 0 6 3 1 5 -13 5 -14 0 -19 -2 -12 -5z"/>
<path d="M2078 663 c7 -3 16 -2 19 1 4 3 -2 6 -13 5 -11 0 -14 -3 -6 -6z"/>
<path d="M2283 663 c15 -2 37 -2 50 0 12 2 0 4 -28 4 -27 0 -38 -2 -22 -4z"/>
<path d="M2080 590 c-13 -8 -12 -10 3 -10 9 0 17 5 17 10 0 12 -1 12 -20 0z"/>
<path d="M2263 550 c0 -30 2 -43 4 -27 2 15 2 39 0 55 -2 15 -4 2 -4 -28z"/>
<path d="M716 513 c-6 -14 -5 -15 5 -6 7 7 10 15 7 18 -3 3 -9 -2 -12 -12z"/>
<path d="M2127 509 c7 -7 15 -10 18 -7 3 3 -2 9 -12 12 -14 6 -15 5 -6 -5z"/>
<path d="M2198 473 c6 -2 18 -2 25 0 6 3 1 5 -13 5 -14 0 -19 -2 -12 -5z"/>
<path d="M2160 445 c0 -23 -4 -24 -62 -28 l-63 -3 62 -2 c59 -2 62 -3 66 -29
l4 -28 2 28 c1 25 4 27 49 28 26 1 58 4 72 9 16 5 1 7 -45 6 -66 -1 -70 0 -69
22 0 12 -3 22 -8 22 -4 0 -8 -11 -8 -25z"/>
<path d="M2115 282 c-43 -48 -45 -53 -17 -33 19 13 36 30 39 37 10 26 44 27
71 1 15 -13 41 -32 57 -42 23 -13 21 -10 -10 16 -22 19 -50 44 -63 57 -13 12
-24 22 -25 21 -1 -1 -24 -26 -52 -57z"/>
<path d="M2004 196 c-3 -8 -4 -25 -1 -38 3 -17 5 -15 6 10 1 22 5 31 13 26 7
-4 8 -3 4 4 -10 16 -15 15 -22 -2z"/>
<path d="M2150 183 c0 -11 3 -14 8 -7 4 6 14 14 22 17 10 4 8 6 -7 6 -16 1
-23 -5 -23 -16z"/>
<path d="M2220 196 c0 -2 7 -7 16 -10 8 -3 12 -2 9 4 -6 10 -25 14 -25 6z"/>
<path d="M2282 170 c0 -14 2 -19 5 -12 2 6 2 18 0 25 -3 6 -5 1 -5 -13z"/>
<path d="M2030 175 c0 -5 5 -17 10 -25 5 -8 10 -10 10 -5 0 6 -5 17 -10 25 -5
8 -10 11 -10 5z"/>
<path d="M2304 169 c-3 -6 6 -23 22 -38 l28 -26 -23 27 c-13 14 -20 31 -16 37
3 6 4 11 1 11 -3 0 -8 -5 -12 -11z"/>
<path d="M2087 139 c7 -7 15 -10 18 -7 3 3 -2 9 -12 12 -14 6 -15 5 -6 -5z"/>
<path d="M2220 136 c7 -7 13 -7 20 0 6 6 3 10 -10 10 -13 0 -16 -4 -10 -10z"/>
</g>
</svg>
