<?xml version="1.0" standalone="no"?>
<!DOCTYPE svg PUBLIC "-//W3C//DTD SVG 20010904//EN"
 "http://www.w3.org/TR/2001/REC-SVG-20010904/DTD/svg10.dtd">
<svg version="1.0" xmlns="http://www.w3.org/2000/svg"
 width="531.000000pt" height="531.000000pt" viewBox="0 0 531.000000 531.000000"
 preserveAspectRatio="xMidYMid meet">
<metadata>
Created by potrace 1.11, written by Peter Selinger 2001-2013
</metadata>
<g transform="translate(0.000000,531.000000) scale(0.100000,-0.100000)"
fill="#000000" stroke="none">
<path d="M0 2655 l0 -2655 2655 0 2655 0 0 2655 0 2655 -2655 0 -2655 0 0
-2655z m5300 0 l0 -2645 -2645 0 -2645 0 0 2645 0 2645 2645 0 2645 0 0 -2645z"/>
<path d="M4346 5223 c-6 -14 -5 -15 5 -6 7 7 10 15 7 18 -3 3 -9 -2 -12 -12z"/>
<path d="M4315 5179 c-4 -6 -5 -12 -2 -15 2 -3 7 2 10 11 7 17 1 20 -8 4z"/>
<path d="M4279 5123 c-13 -16 -12 -17 4 -4 9 7 17 15 17 17 0 8 -8 3 -21 -13z"/>
<path d="M4246 5073 c-6 -14 -5 -15 5 -6 7 7 10 15 7 18 -3 3 -9 -2 -12 -12z"/>
<path d="M4215 5029 c-4 -6 -5 -12 -2 -15 2 -3 7 2 10 11 7 17 1 20 -8 4z"/>
<path d="M300 5010 c-18 -18 -20 -33 -20 -185 0 -152 2 -167 20 -185 20 -20
33 -20 690 -20 657 0 670 0 690 20 18 18 20 33 20 185 0 152 -2 167 -20 185
-20 20 -33 20 -690 20 -657 0 -670 0 -690 -20z m1370 -10 c18 -18 20 -33 20
-175 0 -142 -2 -157 -20 -175 -20 -20 -33 -20 -680 -20 -647 0 -660 0 -680 20
-18 18 -20 33 -20 175 0 142 2 157 20 175 20 20 33 20 680 20 647 0 660 0 680
-20z"/>
<path d="M480 4810 l0 -70 38 0 c48 0 72 24 72 72 0 44 -25 68 -73 68 l-37 0
0 -70z m64 44 c22 -8 22 -80 0 -88 -30 -11 -34 -6 -34 44 0 50 4 55 34 44z"/>
<path d="M680 4870 c0 -5 7 -10 15 -10 8 0 15 5 15 10 0 6 -7 10 -15 10 -8 0
-15 -4 -15 -10z"/>
<path d="M1060 4865 c-18 -21 -3 -52 30 -64 31 -10 38 -25 19 -36 -5 -4 -19 1
-30 11 -22 20 -38 11 -23 -14 14 -21 60 -28 80 -11 23 19 13 52 -21 69 -16 8
-32 16 -34 18 -3 1 0 7 7 14 8 8 15 8 26 -1 23 -20 42 -9 22 12 -21 21 -59 22
-76 2z"/>
<path d="M1170 4870 c0 -5 7 -10 15 -10 8 0 15 5 15 10 0 6 -7 10 -15 10 -8 0
-15 -4 -15 -10z"/>
<path d="M1280 4855 c0 -18 -4 -23 -15 -19 -22 9 -45 -14 -45 -46 0 -34 16
-47 58 -47 l32 0 0 69 c0 54 -3 68 -15 68 -9 0 -15 -9 -15 -25z m-2 -68 c2
-19 -1 -27 -12 -27 -20 0 -29 16 -21 41 9 27 29 19 33 -14z"/>
<path d="M610 4790 c0 -38 4 -50 15 -50 11 0 15 11 15 40 0 29 4 40 15 40 8 0
15 5 15 10 0 6 -13 10 -30 10 -29 0 -30 -1 -30 -50z"/>
<path d="M680 4790 c0 -38 4 -50 15 -50 11 0 15 12 15 50 0 38 -4 50 -15 50
-11 0 -15 -12 -15 -50z"/>
<path d="M739 4793 c10 -27 24 -48 31 -48 7 0 21 21 31 48 16 39 16 47 4 47
-8 0 -17 -11 -21 -25 -3 -14 -10 -25 -14 -25 -4 0 -11 11 -14 25 -4 14 -13 25
-21 25 -12 0 -12 -8 4 -47z"/>
<path d="M842 4828 c-15 -15 -15 -61 0 -76 17 -17 43 -15 59 5 13 15 11 16
-13 10 -15 -4 -30 -3 -33 3 -4 6 6 10 24 10 23 0 31 5 31 18 0 22 -19 42 -40
42 -9 0 -21 -5 -28 -12z m43 -18 c3 -5 -3 -10 -15 -10 -12 0 -18 5 -15 10 3 6
10 10 15 10 5 0 12 -4 15 -10z"/>
<path d="M930 4790 c0 -38 4 -50 15 -50 11 0 15 11 15 40 0 29 4 40 15 40 8 0
15 5 15 10 0 6 -13 10 -30 10 -29 0 -30 -1 -30 -50z"/>
<path d="M1170 4790 c0 -38 4 -50 15 -50 11 0 15 12 15 50 0 38 -4 50 -15 50
-11 0 -15 -12 -15 -50z"/>
<path d="M1342 4828 c-7 -7 -12 -24 -12 -38 0 -47 44 -67 71 -33 13 15 11 16
-13 10 -15 -4 -30 -3 -33 3 -4 6 6 10 24 10 23 0 31 5 31 18 0 22 -19 42 -40
42 -9 0 -21 -5 -28 -12z m43 -18 c3 -5 -3 -10 -15 -10 -12 0 -18 5 -15 10 3 6
10 10 15 10 5 0 12 -4 15 -10z"/>
<path d="M4179 4973 c-13 -16 -12 -17 4 -4 16 13 21 21 13 21 -2 0 -10 -8 -17
-17z"/>
<path d="M4147 4933 c-4 -3 -7 -11 -7 -17 0 -6 5 -5 12 2 6 6 9 14 7 17 -3 3
-9 2 -12 -2z"/>
<path d="M4115 4879 c-4 -6 -5 -12 -2 -15 2 -3 7 2 10 11 7 17 1 20 -8 4z"/>
<path d="M4076 4824 c-5 -14 -4 -15 9 -4 17 14 19 20 6 20 -5 0 -12 -7 -15
-16z"/>
<path d="M4047 4783 c-4 -3 -7 -11 -7 -17 0 -6 5 -5 12 2 6 6 9 14 7 17 -3 3
-9 2 -12 -2z"/>
<path d="M4015 4729 c-4 -6 -5 -12 -2 -15 2 -3 7 2 10 11 7 17 1 20 -8 4z"/>
<path d="M3976 4674 c-5 -14 -4 -15 9 -4 17 14 19 20 6 20 -5 0 -12 -7 -15
-16z"/>
<path d="M3947 4633 c-4 -3 -7 -11 -7 -17 0 -6 5 -5 12 2 6 6 9 14 7 17 -3 3
-9 2 -12 -2z"/>
<path d="M3915 4579 c-4 -6 -5 -12 -2 -15 2 -3 7 2 10 11 7 17 1 20 -8 4z"/>
<path d="M3876 4524 c-5 -14 -4 -15 9 -4 17 14 19 20 6 20 -5 0 -12 -7 -15
-16z"/>
<path d="M3847 4483 c-4 -3 -7 -11 -7 -17 0 -6 5 -5 12 2 6 6 9 14 7 17 -3 3
-9 2 -12 -2z"/>
<path d="M4380 4325 l0 -125 95 0 95 0 0 -35 0 -35 -90 0 c-73 0 -90 -3 -90
-15 0 -12 17 -15 90 -15 l90 0 0 -94 0 -93 -96 -83 c-68 -58 -93 -85 -85 -93
8 -8 17 -5 33 9 13 11 56 48 96 83 l72 63 73 -63 c39 -35 82 -72 95 -83 16
-14 25 -17 33 -9 8 8 -17 35 -85 93 l-96 83 0 93 0 94 90 0 c73 0 90 3 90 15
0 12 -17 15 -90 15 l-90 0 0 35 0 35 95 0 95 0 0 125 0 125 -210 0 -210 0 0
-125z m400 0 l0 -95 -190 0 -190 0 0 95 0 95 190 0 190 0 0 -95z"/>
<path d="M4494 4379 c-10 -17 13 -36 27 -22 12 12 4 33 -11 33 -5 0 -12 -5
-16 -11z"/>
<path d="M4632 4364 c4 -21 22 -23 26 -1 2 10 -3 17 -13 17 -10 0 -15 -6 -13
-16z"/>
<path d="M4664 4304 c-41 -44 -82 -45 -147 -4 -52 33 -57 35 -57 20 0 -18 104
-70 141 -70 38 0 81 26 99 60 17 33 -4 29 -36 -6z"/>
<path d="M3815 4429 c-4 -6 -5 -12 -2 -15 2 -3 7 2 10 11 7 17 1 20 -8 4z"/>
<path d="M3780 4379 c0 -5 5 -7 10 -4 6 3 10 8 10 11 0 2 -4 4 -10 4 -5 0 -10
-5 -10 -11z"/>
<path d="M3747 4333 c-4 -3 -7 -11 -7 -17 0 -6 5 -5 12 2 6 6 9 14 7 17 -3 3
-9 2 -12 -2z"/>
<path d="M3715 4279 c-4 -6 -5 -12 -2 -15 2 -3 7 2 10 11 7 17 1 20 -8 4z"/>
<path d="M700 4155 l0 -125 100 0 100 0 0 -30 0 -30 -95 0 c-78 0 -95 -3 -95
-15 0 -12 17 -15 95 -15 l95 0 0 -94 0 -93 -95 -82 c-52 -46 -95 -86 -95 -90
0 -25 23 -12 105 59 51 44 96 80 100 80 4 0 49 -36 100 -80 82 -71 105 -84
105 -59 0 4 -43 44 -95 90 l-95 82 0 93 0 94 95 0 c78 0 95 3 95 15 0 12 -17
15 -95 15 l-95 0 0 30 0 30 100 0 100 0 0 125 0 125 -215 0 -215 0 0 -125z
m400 0 l0 -95 -185 0 -185 0 0 95 0 95 185 0 185 0 0 -95z"/>
<path d="M817 4214 c-9 -10 2 -24 19 -24 8 0 14 7 14 15 0 15 -21 21 -33 9z"/>
<path d="M954 4209 c-10 -17 13 -36 27 -22 12 12 4 33 -11 33 -5 0 -12 -5 -16
-11z"/>
<path d="M785 4161 c-7 -12 66 -60 108 -72 45 -12 98 7 123 45 25 40 10 43
-24 5 -39 -44 -82 -44 -151 -2 -28 18 -53 28 -56 24z"/>
<path d="M3680 4229 c0 -5 5 -7 10 -4 6 3 10 8 10 11 0 2 -4 4 -10 4 -5 0 -10
-5 -10 -11z"/>
<path d="M3647 4183 c-4 -3 -7 -11 -7 -17 0 -6 5 -5 12 2 6 6 9 14 7 17 -3 3
-9 2 -12 -2z"/>
<path d="M3615 4129 c-4 -6 -5 -12 -2 -15 2 -3 7 2 10 11 7 17 1 20 -8 4z"/>
<path d="M3580 4079 c0 -5 5 -7 10 -4 6 3 10 8 10 11 0 2 -4 4 -10 4 -5 0 -10
-5 -10 -11z"/>
<path d="M3547 4033 c-4 -3 -7 -11 -7 -17 0 -6 5 -5 12 2 6 6 9 14 7 17 -3 3
-9 2 -12 -2z"/>
<path d="M1996 3795 c-20 -30 -20 -40 0 -59 22 -23 53 -20 63 6 6 16 10 18 16
8 5 -8 1 -18 -10 -26 -10 -8 -15 -17 -11 -21 8 -8 46 32 46 48 0 4 -20 22 -44
38 l-44 31 -16 -25z m50 -26 c11 -18 -13 -34 -31 -19 -8 7 -15 16 -15 21 0 13
38 11 46 -2z"/>
<path d="M3483 3742 c-24 -15 -43 -33 -43 -39 0 -16 5 -16 30 -1 16 11 22 9
34 -7 19 -26 31 -13 15 14 -18 28 0 41 18 14 16 -24 33 -30 33 -14 0 6 -10 21
-22 35 l-23 26 -42 -28z"/>
<path d="M1935 3703 c-17 -25 -17 -27 1 -40 11 -8 27 -19 37 -24 26 -14 22 9
-5 31 -29 23 -17 37 18 21 36 -16 44 -4 14 19 -33 26 -45 25 -65 -7z"/>
<path d="M4110 3620 c0 -33 4 -60 10 -60 6 0 10 11 10 25 0 14 6 25 13 25 8 0
20 -11 27 -25 7 -14 19 -25 27 -25 17 0 16 10 -2 34 -12 16 -12 20 0 33 26 25
1 53 -45 53 l-40 0 0 -60z m70 25 c0 -9 -9 -15 -25 -15 -24 0 -32 10 -18 23
12 13 43 7 43 -8z"/>
<path d="M4323 3665 c-14 -27 -5 -105 12 -105 8 0 17 5 20 10 3 6 1 10 -6 10
-8 0 -10 11 -7 33 3 17 2 41 -2 52 -7 19 -7 19 -17 0z"/>
<path d="M4500 3620 c0 -58 15 -84 22 -38 2 14 12 24 27 28 59 14 47 70 -15
70 l-34 0 0 -60z m61 25 c0 -5 -9 -11 -21 -13 -20 -3 -27 8 -13 22 10 9 34 3
34 -9z"/>
<path d="M4860 3670 c0 -5 5 -10 10 -10 6 0 10 5 10 10 0 6 -4 10 -10 10 -5 0
-10 -4 -10 -10z"/>
<path d="M4960 3662 c0 -13 -8 -18 -27 -17 -25 0 -28 -4 -31 -37 -2 -21 0 -39
5 -39 4 -1 23 -3 41 -5 l32 -2 0 59 c0 33 -4 59 -10 59 -5 0 -10 -8 -10 -18z
m-7 -44 c6 -19 -3 -38 -19 -38 -8 0 -14 10 -14 25 0 26 25 35 33 13z"/>
<path d="M1870 3663 c1 -14 84 -72 94 -66 11 7 -43 53 -61 53 -7 0 -13 5 -13
10 0 6 -4 10 -10 10 -5 0 -10 -3 -10 -7z"/>
<path d="M3512 3648 c-28 -28 -3 -72 39 -66 30 4 47 33 33 56 -14 21 -55 27
-72 10z m56 -25 c5 -17 -26 -29 -40 -15 -6 6 -7 15 -3 22 9 14 37 9 43 -7z"/>
<path d="M4237 3644 c-13 -14 -7 -22 13 -17 29 8 25 -6 -6 -17 -38 -15 -28
-44 17 -48 l35 -3 -5 43 c-5 33 -11 44 -26 46 -12 2 -24 0 -28 -4z m33 -52 c0
-13 -12 -22 -22 -16 -10 6 -1 24 13 24 5 0 9 -4 9 -8z"/>
<path d="M4369 3629 c-16 -31 4 -71 33 -67 12 2 23 8 25 15 3 7 -3 9 -16 6
-12 -3 -21 -1 -21 6 0 6 11 11 25 11 27 0 33 18 13 38 -19 19 -46 14 -59 -9z
m46 -9 c3 -5 -1 -10 -9 -10 -9 0 -16 5 -16 10 0 6 4 10 9 10 6 0 13 -4 16 -10z"/>
<path d="M4610 3604 c0 -24 5 -44 10 -44 6 0 10 16 10 35 0 24 5 35 15 35 8 0
15 4 15 9 0 5 -11 9 -25 9 -23 0 -25 -4 -25 -44z"/>
<path d="M4680 3636 c-28 -35 11 -93 48 -70 35 22 22 84 -18 84 -10 0 -23 -7
-30 -14z m47 -22 c8 -21 -13 -42 -28 -27 -13 13 -5 43 11 43 6 0 13 -7 17 -16z"/>
<path d="M4765 3633 c4 -10 12 -30 17 -45 5 -16 14 -28 19 -28 8 0 39 63 39
81 0 20 -19 7 -28 -18 l-10 -28 -11 28 c-6 15 -16 27 -22 27 -7 0 -8 -7 -4
-17z"/>
<path d="M4860 3605 c0 -25 5 -45 10 -45 6 0 10 20 10 45 0 25 -4 45 -10 45
-5 0 -10 -20 -10 -45z"/>
<path d="M5007 3643 c-11 -10 -8 -71 4 -78 14 -9 59 3 59 15 0 6 -11 8 -25 4
-15 -4 -25 -2 -25 5 0 6 11 11 25 11 27 0 33 18 13 38 -13 13 -41 16 -51 5z
m43 -23 c0 -5 -7 -10 -15 -10 -8 0 -15 5 -15 10 0 6 7 10 15 10 8 0 15 -4 15
-10z"/>
<path d="M5090 3604 c0 -24 5 -44 10 -44 6 0 10 16 10 35 0 24 5 35 15 35 8 0
15 4 15 9 0 5 -11 9 -25 9 -23 0 -25 -4 -25 -44z"/>
<path d="M1870 3596 c0 -28 -1 -28 -18 -13 -22 20 -32 21 -32 5 0 -16 81 -69
93 -61 5 3 4 10 -2 16 -17 17 -13 26 8 20 10 -3 21 0 25 5 3 5 -6 13 -21 17
-15 3 -33 14 -40 23 -11 15 -12 14 -13 -12z"/>
<path d="M3578 3572 c-16 -9 -28 -20 -28 -24 0 -12 28 -10 36 3 3 6 17 8 30 5
27 -7 30 -1 10 20 -18 17 -15 17 -48 -4z"/>
<path d="M1815 3533 c-4 -13 2 -25 22 -40 15 -13 31 -23 36 -23 14 0 7 20 -13
32 -11 7 -20 21 -20 30 0 23 -16 23 -25 1z"/>
<path d="M547 3482 c-38 -41 -4 -111 46 -98 27 6 45 36 22 36 -7 0 -17 -4 -20
-10 -19 -30 -52 18 -35 50 11 21 40 28 40 10 0 -5 7 -10 15 -10 18 0 19 12 3
28 -18 18 -53 15 -71 -6z"/>
<path d="M850 3440 l0 -60 33 0 c42 0 57 15 57 60 0 45 -15 60 -57 60 l-33 0
0 -60z m66 15 c8 -34 -1 -55 -26 -55 -17 0 -20 6 -20 40 0 33 3 40 20 40 13 0
22 -9 26 -25z"/>
<path d="M1020 3490 c0 -5 7 -10 15 -10 8 0 15 5 15 10 0 6 -7 10 -15 10 -8 0
-15 -4 -15 -10z"/>
<path d="M3638 3489 c-21 -12 -24 -49 -6 -67 19 -19 45 -14 62 10 13 19 14 25
2 43 -16 24 -35 28 -58 14z m38 -48 c-22 -21 -46 0 -26 24 10 12 16 13 27 3
12 -10 12 -13 -1 -27z"/>
<path d="M1774 3465 c-20 -31 -10 -47 12 -19 15 18 15 18 9 -9 -8 -38 21 -49
45 -16 21 27 19 34 -20 54 -28 15 -30 14 -46 -10z m56 -30 c0 -8 -4 -15 -10
-15 -5 0 -10 7 -10 15 0 8 5 15 10 15 6 0 10 -7 10 -15z"/>
<path d="M4211 3473 c-18 -36 -17 -91 3 -119 13 -17 13 -14 3 23 -8 30 -8 51
0 77 12 39 9 47 -6 19z"/>
<path d="M4250 3430 c0 -33 4 -60 10 -60 6 0 10 14 10 30 0 42 25 38 49 -7 6
-13 17 -23 23 -23 6 0 3 10 -6 25 -13 20 -14 29 -5 44 20 31 4 51 -41 51 l-40
0 0 -60z m69 37 c14 -17 4 -27 -26 -27 -16 0 -23 6 -23 20 0 23 31 27 49 7z"/>
<path d="M4749 3476 c-2 -11 -2 -39 0 -63 2 -31 7 -43 19 -43 12 0 13 3 4 12
-16 16 -15 68 1 68 8 0 9 3 1 8 -6 4 -13 14 -16 22 -4 12 -6 11 -9 -4z"/>
<path d="M5017 3478 c19 -24 22 -63 9 -100 -8 -21 -10 -38 -6 -38 11 0 30 48
30 75 0 30 -20 75 -33 75 -6 0 -6 -5 0 -12z"/>
<path d="M657 3463 c-14 -13 -6 -24 13 -18 11 4 20 2 20 -4 0 -6 -9 -11 -19
-11 -21 0 -33 -21 -22 -38 3 -6 21 -10 39 -10 29 1 32 4 32 33 0 17 -5 36 -12
43 -13 13 -41 16 -51 5z m33 -53 c0 -5 -4 -10 -10 -10 -5 0 -10 5 -10 10 0 6
5 10 10 10 6 0 10 -4 10 -10z"/>
<path d="M740 3424 c0 -24 5 -44 10 -44 6 0 10 16 10 35 0 24 5 35 15 35 8 0
15 4 15 9 0 5 -11 9 -25 9 -23 0 -25 -4 -25 -44z"/>
<path d="M960 3424 c0 -24 5 -44 10 -44 6 0 10 14 10 30 0 18 6 33 15 36 23 9
18 22 -10 22 -23 0 -25 -4 -25 -44z"/>
<path d="M1020 3425 c0 -33 4 -45 15 -45 11 0 15 12 15 45 0 33 -4 45 -15 45
-11 0 -15 -12 -15 -45z"/>
<path d="M1065 3453 c4 -10 12 -30 17 -45 5 -16 14 -28 19 -28 8 0 39 63 39
81 0 20 -19 7 -28 -18 l-10 -28 -11 28 c-6 15 -16 27 -22 27 -7 0 -8 -7 -4
-17z"/>
<path d="M1162 3458 c-16 -16 -15 -53 3 -68 17 -14 47 -10 53 9 3 9 -2 11 -17
6 -12 -4 -21 -2 -21 4 0 6 11 11 25 11 28 0 29 3 15 31 -12 21 -40 25 -58 7z
m38 -18 c0 -5 -7 -10 -16 -10 -8 0 -12 5 -9 10 3 6 10 10 16 10 5 0 9 -4 9
-10z"/>
<path d="M1250 3425 c0 -25 5 -45 10 -45 6 0 10 16 10 35 0 24 5 35 15 35 8 0
15 5 15 10 0 6 -11 10 -25 10 -23 0 -25 -4 -25 -45z"/>
<path d="M1992 3453 c-5 -10 -7 -24 -5 -30 6 -15 39 -17 48 -3 3 6 12 10 18
10 7 0 1 -9 -13 -20 -18 -14 -20 -20 -9 -20 20 0 39 20 39 41 0 26 -19 33 -39
15 -25 -23 -38 -20 -16 4 16 18 16 20 2 20 -9 0 -20 -8 -25 -17z"/>
<path d="M4372 3448 c-16 -16 -15 -53 3 -68 18 -15 47 -10 53 10 4 13 3 13
-11 2 -9 -8 -21 -11 -27 -7 -18 11 -11 25 15 25 18 0 25 5 25 19 0 28 -37 40
-58 19z m46 -16 c2 -7 -7 -12 -23 -12 -24 0 -26 2 -15 15 14 17 31 16 38 -3z"/>
<path d="M4450 3401 c0 -34 4 -61 10 -61 6 0 10 6 10 14 0 8 10 16 23 18 19 3
22 9 22 43 0 38 -2 40 -32 43 l-33 3 0 -60z m55 13 c0 -19 -5 -29 -15 -29 -16
0 -25 28 -16 51 10 25 31 10 31 -22z"/>
<path d="M4553 3453 c-19 -7 -16 -72 3 -80 37 -14 70 41 44 73 -13 14 -25 16
-47 7z m41 -26 c8 -12 7 -21 -6 -33 -20 -20 -38 -11 -38 20 0 39 23 46 44 13z"/>
<path d="M4637 3454 c-15 -15 -6 -35 20 -45 19 -7 23 -13 15 -21 -8 -8 -16 -7
-28 3 -15 12 -17 12 -12 -1 2 -8 15 -15 29 -15 34 0 37 30 3 48 -18 9 -23 17
-15 21 7 4 19 2 28 -6 14 -11 16 -11 11 2 -5 16 -39 25 -51 14z"/>
<path d="M4713 3415 c0 -27 2 -38 4 -22 2 15 2 37 0 50 -2 12 -4 0 -4 -28z"/>
<path d="M4803 3453 c-19 -7 -16 -72 3 -80 37 -14 70 41 44 73 -13 14 -25 16
-47 7z m41 -26 c8 -12 7 -21 -6 -33 -20 -20 -38 -11 -38 20 0 39 23 46 44 13z"/>
<path d="M4881 3410 c1 -41 2 -42 8 -14 16 65 32 70 54 17 14 -34 13 -40 -1
-55 -8 -10 -10 -18 -5 -18 15 0 27 18 46 69 20 52 14 70 -6 21 l-14 -32 -11
31 c-10 27 -16 31 -42 29 -29 -2 -30 -4 -29 -48z"/>
<path d="M3712 3416 c-47 -33 -46 -33 -28 -61 20 -31 52 -30 73 2 12 18 12 23
0 35 -13 11 -13 15 0 31 24 26 -4 22 -45 -7z m28 -41 c0 -16 -27 -32 -37 -22
-3 4 -3 13 0 22 8 20 37 20 37 0z"/>
<path d="M1961 3401 c-12 -22 -11 -26 15 -47 18 -14 33 -19 39 -13 6 6 1 15
-12 24 -12 8 -23 25 -25 38 l-3 22 -14 -24z"/>
<path d="M1723 3390 c-3 -11 -9 -20 -14 -20 -20 0 -6 -17 36 -44 46 -28 69
-29 46 -2 -8 10 -9 16 -1 21 17 10 11 44 -9 55 -30 16 -52 12 -58 -10z m41 -6
c22 -9 20 -34 -3 -34 -19 0 -35 23 -24 34 8 7 8 7 27 0z"/>
<path d="M3487 3359 c-33 -25 -26 -45 8 -23 14 9 32 13 45 9 19 -6 20 -5 8 14
-16 26 -26 26 -61 0z"/>
<path d="M3792 3353 c-31 -11 -64 -53 -57 -70 6 -15 8 -15 13 -3 8 22 34 39
52 32 8 -3 12 -2 8 3 -4 4 -3 14 3 21 11 14 1 24 -19 17z"/>
<path d="M1910 3331 c-13 -25 -13 -41 0 -41 6 0 10 6 10 14 0 8 4 17 9 20 5 3
8 -9 7 -26 -2 -44 27 -50 47 -10 14 28 13 30 -13 46 -36 21 -47 20 -60 -3z
m60 -30 c0 -6 -4 -13 -10 -16 -5 -3 -10 1 -10 9 0 9 5 16 10 16 6 0 10 -4 10
-9z"/>
<path d="M3550 3321 c0 -5 5 -13 10 -16 6 -3 10 -11 10 -17 0 -6 -9 -3 -20 7
-20 18 -50 15 -50 -6 0 -6 8 -22 19 -35 l19 -24 26 21 c31 24 34 54 6 69 -12
7 -20 7 -20 1z m-3 -57 c-9 -9 -28 6 -21 18 4 6 10 6 17 -1 6 -6 8 -13 4 -17z"/>
<path d="M1653 3291 c-11 -17 -9 -23 16 -40 48 -35 71 -25 26 10 -14 12 -22
26 -18 34 8 22 -10 18 -24 -4z"/>
<path d="M3800 3294 c0 -4 8 -13 18 -20 16 -12 16 -13 0 -14 -9 0 -20 5 -23
10 -3 6 -12 10 -20 10 -23 0 -24 -28 -1 -54 l22 -26 29 30 c28 29 28 30 10 50
-18 20 -35 26 -35 14z m-5 -44 c3 -5 1 -10 -4 -10 -6 0 -11 5 -11 10 0 6 2 10
4 10 3 0 8 -4 11 -10z"/>
<path d="M1860 3261 c-18 -35 18 -79 54 -65 20 8 31 43 17 57 -8 8 -11 5 -11
-11 0 -15 -6 -22 -19 -22 -27 0 -37 21 -18 35 21 15 22 25 2 25 -8 0 -19 -9
-25 -19z"/>
<path d="M3590 3241 c-25 -21 -31 -33 -26 -47 7 -18 9 -18 17 4 4 12 13 23 19
23 5 1 15 2 20 3 14 1 30 28 24 38 -9 14 -20 9 -54 -21z"/>
<path d="M3886 3241 c-4 -5 -2 -12 3 -15 5 -4 12 -2 15 3 4 5 2 12 -3 15 -5 4
-12 2 -15 -3z"/>
<path d="M1612 3228 c-35 -35 15 -99 53 -68 30 25 12 80 -25 80 -9 0 -21 -5
-28 -12z m44 -23 c3 -8 3 -19 0 -24 -10 -16 -36 -1 -36 20 0 22 28 26 36 4z"/>
<path d="M3832 3206 c-20 -14 -29 -27 -23 -31 14 -8 73 33 66 46 -7 11 -4 13
-43 -15z"/>
<path d="M3608 3199 c-24 -14 -23 -56 2 -69 16 -8 20 -8 20 4 0 8 -6 16 -12
19 -7 2 -10 8 -5 12 4 5 13 0 21 -10 16 -22 36 -12 36 20 0 32 -30 43 -62 24z
m47 -18 c3 -5 1 -12 -4 -15 -5 -3 -11 1 -15 9 -6 16 9 21 19 6z"/>
<path d="M1530 3160 l-23 -33 24 -18 c39 -29 68 -43 76 -35 5 4 0 14 -10 21
-15 11 -16 17 -8 34 7 12 7 22 2 26 -6 3 -15 -4 -21 -16 -9 -15 -15 -18 -23
-10 -7 7 -6 15 2 25 7 9 11 21 9 27 -2 7 -15 -2 -28 -21z"/>
<path d="M3856 3169 c-32 -25 -24 -45 9 -23 38 24 54 5 20 -22 -35 -28 -26
-44 10 -20 36 24 41 44 17 67 -26 23 -24 23 -56 -2z"/>
<path d="M3672 3105 c2 -19 0 -35 -4 -35 -4 0 -8 9 -8 19 0 11 -4 23 -10 26
-16 10 -12 -41 5 -55 25 -21 48 -4 40 30 -8 35 2 40 14 8 4 -12 11 -17 14 -11
9 14 -21 53 -40 53 -12 0 -14 -8 -11 -35z"/>
<path d="M3960 3120 c0 -5 -6 -10 -12 -10 -20 -1 -71 -47 -60 -54 9 -5 63 30
70 46 2 5 10 8 18 8 9 0 12 5 9 10 -3 6 -10 10 -16 10 -5 0 -9 -4 -9 -10z"/>
<path d="M3955 3064 c-11 -9 -27 -19 -35 -24 -11 -6 -12 -12 -4 -20 8 -8 14
-7 24 5 13 16 50 21 50 6 0 -5 -12 -18 -27 -29 -15 -11 -22 -22 -16 -25 13 -8
63 30 63 46 0 7 -8 22 -18 34 -16 20 -19 21 -37 7z"/>
<path d="M4002 2983 c-24 -9 -33 -40 -17 -57 9 -9 11 -17 5 -21 -5 -3 -15 6
-22 22 -11 28 -12 28 -16 4 -5 -29 19 -55 44 -47 11 3 32 17 49 30 29 23 29
24 12 50 -17 25 -29 30 -55 19z m34 -42 c-10 -16 -36 -13 -36 3 0 17 21 27 34
16 4 -5 5 -13 2 -19z"/>
<path d="M2030 2840 l0 -90 58 0 c44 0 63 5 75 18 21 23 22 46 2 62 -11 9 -12
17 -5 30 24 45 -3 70 -76 70 l-54 0 0 -90z m100 40 c0 -16 -7 -20 -35 -20 -28
0 -35 4 -35 20 0 16 7 20 35 20 28 0 35 -4 35 -20z m5 -75 c0 -16 -8 -21 -37
-23 -35 -3 -38 -1 -38 23 0 24 3 26 38 23 29 -2 37 -7 37 -23z"/>
<path d="M2210 2840 l0 -90 65 0 c51 0 65 3 65 15 0 11 -12 15 -45 15 l-45 0
0 75 c0 68 -2 75 -20 75 -19 0 -20 -7 -20 -90z"/>
<path d="M2360 2860 c0 -57 4 -74 20 -90 26 -26 81 -26 103 -2 23 25 25 162 2
162 -11 0 -15 -16 -17 -66 -3 -70 -18 -94 -52 -81 -13 5 -16 21 -16 77 0 63
-2 70 -20 70 -18 0 -20 -7 -20 -70z"/>
<path d="M2540 2840 l0 -90 70 0 c56 0 70 3 70 15 0 11 -12 15 -50 15 -47 0
-50 2 -50 25 0 23 4 25 45 25 33 0 45 4 45 15 0 11 -12 15 -45 15 -38 0 -45 3
-45 20 0 17 7 20 50 20 38 0 50 4 50 15 0 12 -14 15 -70 15 l-70 0 0 -90z"/>
<path d="M2700 2916 c0 -10 13 -16 41 -18 l42 -3 -47 -57 c-65 -80 -63 -88 29
-88 60 0 75 3 75 15 0 11 -12 15 -51 15 l-50 0 45 59 c63 82 62 91 -19 91 -50
0 -65 -3 -65 -14z"/>
<path d="M2883 2906 c-22 -19 -28 -32 -28 -66 0 -34 6 -47 28 -66 16 -13 41
-24 57 -24 16 0 41 11 57 24 39 34 39 98 0 132 -16 13 -41 24 -57 24 -16 0
-41 -11 -57 -24z m91 -22 c31 -31 9 -104 -32 -104 -25 0 -52 31 -52 58 0 51
51 79 84 46z"/>
<path d="M3060 2840 c0 -73 3 -90 15 -90 12 0 15 13 15 58 l1 57 35 -57 c23
-38 42 -58 55 -58 17 0 19 8 19 90 0 83 -2 90 -19 90 -17 0 -20 -8 -23 -52
l-3 -52 -32 52 c-49 79 -63 71 -63 -38z"/>
<path d="M3240 2840 l0 -90 65 0 c51 0 65 3 65 15 0 11 -12 15 -50 15 -47 0
-50 2 -50 25 0 23 4 25 45 25 33 0 45 4 45 15 0 11 -12 15 -45 15 -38 0 -45 3
-45 20 0 17 7 20 50 20 38 0 50 4 50 15 0 12 -14 15 -65 15 l-65 0 0 -90z"/>
<path d="M1603 2799 c-53 -37 -61 -65 -12 -38 17 8 23 7 34 -8 7 -10 17 -15
21 -11 4 4 1 15 -6 23 -9 11 -10 19 -3 26 7 7 16 4 27 -12 8 -13 18 -20 22
-17 6 7 -26 68 -36 68 -3 -1 -24 -14 -47 -31z"/>
<path d="M3737 2712 c-24 -26 -21 -49 9 -69 26 -16 27 -16 45 5 9 12 20 18 23
13 3 -5 -1 -14 -9 -21 -8 -7 -15 -16 -15 -21 0 -15 30 3 42 24 9 18 6 25 -27
54 -45 38 -47 39 -68 15z m43 -27 c10 -12 9 -16 -5 -21 -19 -8 -40 9 -31 25
10 15 21 14 36 -4z"/>
<path d="M1630 2701 c-21 -41 21 -81 58 -55 38 26 22 74 -25 74 -12 0 -27 -9
-33 -19z m56 -12 c9 -16 -12 -33 -31 -25 -14 5 -15 9 -5 21 15 18 26 19 36 4z"/>
<path d="M1695 2626 c-35 -28 -29 -45 8 -22 13 9 32 14 41 10 20 -8 21 3 2 22
-18 18 -16 18 -51 -10z"/>
<path d="M3673 2614 c-16 -25 -16 -27 3 -41 39 -30 54 -35 54 -19 0 9 -9 20
-20 26 -11 6 -20 17 -20 25 0 19 10 19 38 -1 32 -22 43 -7 13 17 -31 26 -47
24 -68 -7z"/>
<path d="M3610 2573 c0 -10 75 -63 89 -63 6 0 11 4 11 8 0 9 -62 47 -72 44 -5
-1 -8 3 -8 8 0 6 -4 10 -10 10 -5 0 -10 -3 -10 -7z"/>
<path d="M1762 2544 c-26 -18 -26 -51 0 -68 24 -14 36 1 13 18 -10 7 -15 18
-11 24 10 17 46 15 46 -3 0 -8 5 -15 10 -15 16 0 11 26 -8 43 -23 21 -22 21
-50 1z"/>
<path d="M3609 2519 c-12 -23 -10 -25 34 -50 29 -16 35 0 8 20 -13 10 -21 23
-17 29 3 6 2 13 -3 17 -6 3 -15 -4 -22 -16z"/>
<path d="M1823 2478 c-44 -33 -49 -61 -6 -33 37 25 52 3 17 -24 -33 -26 -24
-40 12 -20 33 17 41 36 26 60 -7 11 -8 20 -2 24 12 7 13 25 3 25 -5 -1 -27
-15 -50 -32z"/>
<path d="M3816 2489 c-24 -36 2 -67 32 -37 6 6 15 9 19 5 3 -4 -2 -14 -13 -23
-18 -14 -18 -15 0 -12 26 4 48 39 36 58 -8 13 -14 13 -42 -3 -32 -18 -32 -18
-15 0 9 11 17 23 17 26 0 14 -20 6 -34 -14z"/>
<path d="M3558 2445 c-10 -22 -9 -29 9 -46 26 -26 60 -18 69 17 13 52 -56 77
-78 29z m50 -7 c17 -17 15 -28 -7 -28 -22 0 -35 15 -26 30 8 13 18 13 33 -2z"/>
<path d="M3756 2442 c-6 -11 16 -35 46 -51 28 -14 64 -8 53 9 -4 6 -10 8 -15
5 -5 -3 -18 3 -28 13 -22 22 -50 34 -56 24z"/>
<path d="M1615 2404 c-19 -20 -16 -43 7 -58 23 -14 36 1 14 17 -16 12 -16 14
-2 26 17 14 36 7 36 -15 0 -8 5 -14 10 -14 14 0 13 33 -2 48 -17 17 -44 15
-63 -4z"/>
<path d="M3500 2395 c0 -5 4 -15 8 -21 11 -15 69 -37 81 -29 15 9 14 28 -1 22
-17 -6 -48 11 -48 26 0 7 -9 13 -20 13 -11 0 -20 -5 -20 -11z"/>
<path d="M3720 2400 c0 -5 5 -10 10 -10 6 0 10 5 10 10 0 6 -4 10 -10 10 -5 0
-10 -4 -10 -10z"/>
<path d="M1862 2388 c-6 -6 -12 -20 -12 -29 0 -20 28 -45 38 -34 4 4 1 10 -5
12 -7 3 -13 12 -13 21 0 13 5 11 20 -8 22 -29 44 -17 38 21 -3 27 -45 38 -66
17z m48 -18 c0 -5 -2 -10 -4 -10 -3 0 -8 5 -11 10 -3 6 -1 10 4 10 6 0 11 -4
11 -10z"/>
<path d="M3750 2381 c0 -10 45 -41 60 -41 19 0 10 16 -19 33 -33 19 -41 21
-41 8z"/>
<path d="M1705 2330 c10 -11 13 -20 7 -20 -6 0 -14 5 -17 10 -3 6 -15 10 -26
10 -24 0 -25 -27 -1 -58 l18 -23 28 30 c23 24 26 32 17 50 -7 12 -19 21 -28
21 -14 0 -14 -2 2 -20z m-10 -30 c3 -5 -1 -10 -9 -10 -9 0 -16 5 -16 10 0 6 4
10 9 10 6 0 13 -4 16 -10z"/>
<path d="M3482 2338 c-15 -15 -16 -45 -2 -53 6 -4 22 1 35 9 14 9 25 12 25 7
0 -6 -8 -14 -17 -20 -10 -5 -15 -13 -10 -17 9 -9 47 25 47 43 0 19 -29 28 -43
14 -6 -6 -15 -11 -21 -11 -6 0 -5 5 2 12 7 7 12 16 12 20 0 12 -14 10 -28 -4z"/>
<path d="M3713 2333 c-4 -10 -12 -22 -20 -26 -7 -4 -13 -15 -13 -22 0 -8 -6
-15 -12 -15 -17 -1 43 -50 60 -50 19 0 15 10 -13 32 -34 26 -22 43 15 21 38
-22 51 -9 16 18 -33 26 -24 47 10 24 14 -9 29 -13 35 -9 12 7 -37 44 -59 44
-7 0 -16 -8 -19 -17z"/>
<path d="M4260 2215 l0 -125 100 0 100 0 0 -35 0 -35 -96 0 c-72 0 -95 -3 -92
-12 3 -9 34 -14 96 -16 l92 -3 0 -89 0 -90 -95 -82 c-52 -45 -95 -86 -95 -90
0 -24 28 -8 110 62 50 44 93 80 95 80 2 0 45 -36 95 -80 82 -70 110 -86 110
-62 0 4 -43 45 -95 90 l-95 82 0 90 0 89 92 3 c62 2 93 7 96 16 3 9 -20 12
-92 12 l-96 0 0 35 0 35 100 0 100 0 0 125 0 125 -215 0 -215 0 0 -125z m400
0 l0 -95 -185 0 -185 0 0 95 0 95 185 0 185 0 0 -95z"/>
<path d="M4376 2272 c-8 -13 11 -35 23 -28 16 10 14 36 -3 36 -8 0 -17 -4 -20
-8z"/>
<path d="M4510 2256 c0 -10 9 -16 21 -16 24 0 21 23 -4 28 -10 2 -17 -3 -17
-12z"/>
<path d="M4355 2200 c25 -28 96 -60 133 -60 23 0 43 10 70 34 47 44 35 60 -13
17 -20 -17 -47 -31 -61 -31 -26 0 -98 33 -109 50 -3 5 -13 10 -22 10 -14 0
-14 -2 2 -20z"/>
<path d="M1910 2316 c-20 -25 -8 -61 20 -64 23 -2 24 -1 8 11 -22 18 -23 33
-2 41 22 8 21 9 29 -16 6 -20 8 -21 12 -5 10 38 -41 63 -67 33z"/>
<path d="M1723 2261 c-32 -27 -30 -48 2 -27 15 10 34 14 45 11 24 -7 26 1 6
21 -19 18 -26 17 -53 -5z"/>
<path d="M1978 2252 c-41 -30 -49 -47 -17 -39 18 5 20 2 15 -18 -8 -33 9 -40
22 -10 7 14 18 25 27 25 24 0 17 20 -7 21 l-23 0 23 16 c12 8 22 19 22 24 0
16 -24 8 -62 -19z"/>
<path d="M3413 2231 c-11 -17 -8 -22 23 -42 38 -23 63 -16 27 8 -13 9 -23 24
-23 34 0 24 -12 24 -27 0z"/>
<path d="M3639 2229 c-12 -22 -10 -25 34 -50 28 -16 35 0 9 21 -13 11 -20 24
-16 34 9 24 -14 19 -27 -5z"/>
<path d="M700 2105 l0 -125 95 0 95 0 0 -35 0 -35 -90 0 c-73 0 -90 -3 -90
-15 0 -12 17 -15 90 -15 l90 0 0 -94 0 -93 -96 -83 c-65 -57 -92 -86 -85 -93
12 -12 7 -15 124 87 l77 68 78 -68 c116 -102 111 -99 123 -87 7 7 -20 36 -85
93 l-96 83 0 93 0 94 90 0 c73 0 90 3 90 15 0 12 -17 15 -90 15 l-90 0 0 35 0
35 95 0 95 0 0 125 0 125 -210 0 -210 0 0 -125z m400 0 l0 -95 -190 0 -190 0
0 95 0 95 190 0 190 0 0 -95z"/>
<path d="M814 2159 c-10 -17 13 -36 27 -22 12 12 4 33 -11 33 -5 0 -12 -5 -16
-11z"/>
<path d="M952 2144 c4 -21 22 -23 26 -1 2 10 -3 17 -13 17 -10 0 -15 -6 -13
-16z"/>
<path d="M780 2101 c0 -19 86 -65 132 -69 44 -4 50 -2 84 32 46 46 37 60 -11
17 -46 -40 -86 -41 -148 -1 -52 32 -57 34 -57 21z"/>
<path d="M1767 2218 c-2 -7 0 -23 4 -35 5 -14 5 -23 -1 -23 -6 0 -10 9 -10 19
0 11 -4 23 -10 26 -16 10 -12 -41 5 -55 25 -21 48 -4 40 30 -8 35 2 40 14 8 4
-12 11 -17 14 -11 8 13 -20 53 -38 53 -7 0 -15 -6 -18 -12z"/>
<path d="M2070 2200 c0 -5 5 -10 10 -10 6 0 10 5 10 10 0 6 -4 10 -10 10 -5 0
-10 -4 -10 -10z"/>
<path d="M2016 2166 c-15 -13 -24 -26 -19 -29 12 -8 74 33 67 44 -8 13 -16 11
-48 -15z"/>
<path d="M3372 2168 c-18 -18 -14 -45 10 -62 37 -26 79 14 58 55 -12 21 -50
25 -68 7z m47 -22 c9 -10 9 -16 1 -21 -16 -10 -40 2 -40 20 0 19 24 20 39 1z"/>
<path d="M3597 2173 c-12 -12 -7 -50 7 -63 23 -19 61 -8 64 18 2 13 -2 30 -8
38 -13 14 -51 19 -63 7z m27 -28 c-4 -8 -8 -15 -10 -15 -2 0 -4 7 -4 15 0 8 4
15 10 15 5 0 7 -7 4 -15z m29 -5 c-3 -11 -9 -20 -15 -20 -5 0 -4 9 2 20 6 11
12 20 14 20 2 0 2 -9 -1 -20z"/>
<path d="M2040 2130 c-30 -23 -19 -38 15 -20 35 19 43 5 15 -25 -31 -33 -19
-43 19 -15 36 25 37 30 12 58 -22 27 -29 27 -61 2z"/>
<path d="M3286 2099 c-11 -18 -15 -34 -9 -38 53 -36 85 -52 91 -46 4 4 -2 13
-13 21 -17 13 -18 17 -7 35 17 26 5 40 -12 16 -14 -18 -36 -23 -36 -8 0 6 5
13 10 16 12 7 14 35 2 35 -4 0 -16 -14 -26 -31z"/>
<path d="M3546 2088 c-22 -31 -21 -33 28 -67 42 -29 67 -32 45 -5 -7 9 -6 18
2 33 11 17 10 23 -5 40 -25 27 -51 27 -70 -1z m54 -24 c0 -16 -26 -19 -35 -4
-3 6 -4 14 0 20 8 13 35 1 35 -16z"/>
<path d="M2094 2049 c-15 -17 -16 -23 -5 -41 7 -11 10 -22 7 -25 -2 -3 -11 8
-19 23 -9 18 -17 23 -21 15 -9 -14 19 -61 36 -61 16 0 88 50 88 61 0 5 -4 9
-9 9 -5 0 -11 9 -14 20 -7 26 -39 26 -63 -1z m52 -28 c-10 -16 -36 -13 -36 3
0 17 21 27 34 16 4 -5 5 -13 2 -19z"/>
<path d="M2300 1820 c0 -47 3 -60 15 -60 9 0 15 9 15 25 0 18 5 25 20 25 11 0
20 5 20 10 0 6 -9 10 -20 10 -11 0 -20 7 -20 15 0 9 9 15 25 15 14 0 25 5 25
10 0 6 -18 10 -40 10 l-40 0 0 -60z"/>
<path d="M2880 1870 c0 -5 5 -10 10 -10 6 0 10 5 10 10 0 6 -4 10 -10 10 -5 0
-10 -4 -10 -10z"/>
<path d="M2410 1836 c-28 -35 11 -93 48 -70 35 22 22 84 -18 84 -10 0 -23 -7
-30 -14z m47 -22 c8 -21 -13 -42 -28 -27 -13 13 -5 43 11 43 6 0 13 -7 17 -16z"/>
<path d="M2500 1805 c0 -25 5 -45 10 -45 6 0 10 14 10 30 0 18 6 33 15 36 24
9 17 24 -10 24 -23 0 -25 -4 -25 -45z"/>
<path d="M2600 1790 c0 -47 3 -60 15 -60 8 0 15 6 15 14 0 8 10 16 21 18 26 4
39 35 28 66 -6 17 -16 22 -44 22 l-35 0 0 -60z m60 15 c0 -16 -6 -25 -15 -25
-9 0 -15 9 -15 25 0 16 6 25 15 25 9 0 15 -9 15 -25z"/>
<path d="M2707 1844 c-15 -15 -6 -24 18 -18 33 8 32 -4 -1 -16 -37 -15 -28
-45 14 -47 33 -1 33 -1 30 40 -3 37 -6 42 -28 45 -14 2 -29 0 -33 -4z m38 -54
c-3 -5 -11 -10 -16 -10 -6 0 -7 5 -4 10 3 6 11 10 16 10 6 0 7 -4 4 -10z"/>
<path d="M2797 1804 c13 -38 13 -48 2 -55 -16 -10 -5 -24 14 -16 20 7 59 117
42 117 -7 0 -18 -12 -23 -27 l-10 -28 -7 28 c-4 15 -13 27 -20 27 -11 0 -11
-9 2 -46z"/>
<path d="M2880 1805 c0 -25 5 -45 10 -45 6 0 10 20 10 45 0 25 -4 45 -10 45
-5 0 -10 -20 -10 -45z"/>
<path d="M2920 1806 c0 -34 4 -46 15 -46 11 0 15 11 15 36 0 45 24 42 28 -4 5
-48 24 -38 20 11 -3 41 -4 42 -40 45 l-38 3 0 -45z"/>
<path d="M3024 1836 c-3 -7 -4 -33 -2 -57 3 -37 7 -45 26 -47 36 -5 52 15 52
68 0 47 0 47 -35 48 -22 1 -38 -4 -41 -12z m46 -31 c0 -26 -14 -33 -25 -15 -9
14 1 40 15 40 5 0 10 -11 10 -25z m-3 -51 c-3 -3 -12 -4 -19 -1 -8 3 -5 6 6 6
11 1 17 -2 13 -5z"/>
<path d="M1915 1589 c-4 -6 -5 -12 -2 -15 2 -3 7 2 10 11 7 17 1 20 -8 4z"/>
<path d="M3930 1510 c0 -58 15 -84 22 -38 2 14 12 24 27 28 59 14 47 70 -15
70 l-34 0 0 -60z m61 25 c0 -5 -9 -11 -21 -13 -20 -3 -27 8 -13 22 10 9 34 3
34 -9z"/>
<path d="M4330 1560 c0 -5 5 -10 10 -10 6 0 10 5 10 10 0 6 -4 10 -10 10 -5 0
-10 -4 -10 -10z"/>
<path d="M4383 1555 c-14 -27 -5 -105 12 -105 8 0 17 5 20 10 3 6 1 10 -6 10
-8 0 -10 11 -7 33 3 17 2 41 -2 52 -7 19 -7 19 -17 0z"/>
<path d="M4481 1556 c-17 -20 -4 -43 32 -55 24 -9 28 -14 19 -23 -10 -10 -17
-10 -33 0 -25 16 -37 8 -19 -13 15 -18 51 -20 68 -3 21 21 13 46 -18 57 -16 5
-30 15 -30 20 0 14 27 14 35 1 4 -6 11 -8 16 -4 16 9 -10 34 -36 34 -12 0 -28
-6 -34 -14z"/>
<path d="M4583 1555 c-16 -29 -2 -99 20 -103 18 -4 24 13 7 23 -14 9 -12 42 3
48 8 4 9 8 1 14 -6 4 -13 15 -16 23 -4 12 -7 11 -15 -5z"/>
<path d="M4039 1519 c-16 -31 4 -71 33 -67 12 2 23 8 25 15 3 7 -3 9 -16 6
-12 -3 -21 -1 -21 6 0 6 11 11 25 11 27 0 33 18 13 38 -19 19 -46 14 -59 -9z
m46 -9 c3 -5 -1 -10 -9 -10 -9 0 -16 5 -16 10 0 6 4 10 9 10 6 0 13 -4 16 -10z"/>
<path d="M4130 1494 c0 -24 5 -44 10 -44 6 0 10 16 10 35 0 24 5 35 15 35 8 0
15 4 15 9 0 5 -11 9 -25 9 -23 0 -25 -4 -25 -44z"/>
<path d="M4190 1494 c0 -24 5 -44 10 -44 6 0 10 16 10 35 0 24 5 35 15 35 10
0 15 -11 15 -35 0 -44 18 -46 22 -3 4 46 28 49 28 4 0 -20 5 -36 11 -36 6 0 9
17 7 43 l-3 42 -57 1 -58 1 0 -43z"/>
<path d="M4330 1495 c0 -25 5 -45 10 -45 6 0 10 20 10 45 0 25 -4 45 -10 45
-5 0 -10 -20 -10 -45z"/>
<path d="M4640 1526 c-28 -35 11 -93 48 -70 35 22 22 84 -18 84 -10 0 -23 -7
-30 -14z m47 -22 c8 -21 -13 -42 -28 -27 -13 13 -5 43 11 43 6 0 13 -7 17 -16z"/>
<path d="M4730 1494 c0 -24 5 -44 10 -44 6 0 10 14 10 30 0 18 6 33 15 36 23
9 18 22 -10 22 -23 0 -25 -4 -25 -44z"/>
<path d="M4800 1525 c-12 -14 -11 -16 13 -10 34 9 35 -2 1 -15 -37 -14 -28
-44 14 -48 l33 -3 -3 43 c-2 35 -7 44 -24 46 -11 2 -27 -4 -34 -13z m40 -45
c0 -5 -7 -10 -16 -10 -8 0 -12 5 -9 10 3 6 10 10 16 10 5 0 9 -4 9 -10z"/>
<path d="M4891 1527 c-27 -27 0 -86 34 -73 8 3 15 1 15 -4 0 -6 -14 -10 -31
-10 -17 0 -28 -4 -24 -10 9 -14 48 -13 63 2 7 7 12 33 12 58 0 45 -1 47 -29
48 -15 0 -33 -4 -40 -11z m46 -23 c8 -21 -13 -42 -28 -27 -13 13 -5 43 11 43
6 0 13 -7 17 -16z"/>
<path d="M4987 1533 c-11 -10 -8 -71 4 -78 14 -9 59 3 59 15 0 6 -11 8 -25 4
-15 -4 -25 -2 -25 5 0 6 11 11 25 11 27 0 33 18 13 38 -13 13 -41 16 -51 5z
m43 -23 c0 -5 -7 -10 -15 -10 -8 0 -15 5 -15 10 0 6 7 10 15 10 8 0 15 -4 15
-10z"/>
<path d="M1846 1483 c-6 -14 -5 -15 5 -6 7 7 10 15 7 18 -3 3 -9 -2 -12 -12z"/>
<path d="M270 1391 c0 -34 4 -61 10 -61 6 0 10 11 10 24 0 19 6 25 28 28 23 3
27 8 27 33 0 27 -3 30 -37 33 l-38 3 0 -60z m58 22 c2 -8 -5 -13 -17 -13 -12
0 -21 6 -21 16 0 18 31 15 38 -3z"/>
<path d="M520 1390 c0 -47 3 -60 15 -60 9 0 15 9 16 23 l0 22 11 -22 c6 -13
17 -23 25 -23 11 0 11 5 -1 28 -10 19 -11 33 -5 45 11 20 -1 23 -19 5 -9 -9
-12 -6 -12 15 0 17 -5 27 -15 27 -12 0 -15 -13 -15 -60z"/>
<path d="M610 1440 c0 -5 5 -10 10 -10 6 0 10 5 10 10 0 6 -4 10 -10 10 -5 0
-10 -4 -10 -10z"/>
<path d="M900 1390 c0 -33 4 -60 10 -60 6 0 10 27 10 60 0 33 -4 60 -10 60 -6
0 -10 -27 -10 -60z"/>
<path d="M1408 1434 c-12 -12 -13 -23 -5 -60 15 -64 34 -57 31 12 -3 65 -5 69
-26 48z"/>
<path d="M1810 1435 c-7 -9 -8 -15 -2 -15 5 0 12 7 16 15 3 8 4 15 2 15 -2 0
-9 -7 -16 -15z"/>
<path d="M2430 1315 l0 -125 100 0 100 0 0 -35 0 -35 -96 0 c-72 0 -95 -3 -92
-12 3 -9 34 -14 96 -16 l92 -3 -1 -92 0 -92 -95 -80 c-52 -44 -94 -83 -94 -87
0 -25 30 -8 111 62 78 68 94 78 108 68 9 -7 51 -43 94 -81 68 -59 97 -74 97
-49 0 4 -42 43 -94 87 l-95 80 0 92 -1 92 92 3 c62 2 93 7 96 16 3 9 -20 12
-92 12 l-96 0 0 35 0 35 100 0 100 0 0 125 0 125 -215 0 -215 0 0 -125z m400
0 l0 -95 -185 0 -185 0 0 95 0 95 185 0 185 0 0 -95z"/>
<path d="M2544 1369 c-3 -6 -2 -15 4 -21 13 -13 32 -2 32 18 0 16 -26 19 -36
3z"/>
<path d="M2680 1356 c0 -8 4 -17 8 -20 13 -8 35 11 28 23 -10 16 -36 14 -36
-3z"/>
<path d="M2516 1321 c-7 -11 46 -55 87 -70 51 -20 85 -13 125 23 20 19 34 38
30 42 -4 4 -21 -7 -37 -25 -43 -46 -112 -38 -177 21 -13 12 -24 15 -28 9z"/>
<path d="M377 1414 c-15 -15 -6 -24 18 -18 33 8 32 -4 -1 -16 -37 -15 -28 -45
14 -47 33 -1 33 -1 30 40 -3 37 -6 42 -28 45 -14 2 -29 0 -33 -4z m43 -54 c0
-5 -7 -10 -15 -10 -8 0 -15 5 -15 10 0 6 7 10 15 10 8 0 15 -4 15 -10z"/>
<path d="M460 1374 c0 -24 5 -44 10 -44 6 0 10 14 10 30 0 18 6 33 15 36 23 9
18 22 -10 22 -23 0 -25 -4 -25 -44z"/>
<path d="M610 1375 c0 -25 5 -45 10 -45 6 0 10 20 10 45 0 25 -4 45 -10 45 -5
0 -10 -20 -10 -45z"/>
<path d="M660 1374 c0 -24 5 -44 10 -44 6 0 10 16 10 35 0 24 5 35 15 35 10 0
15 -11 15 -35 0 -19 5 -35 11 -35 6 0 9 17 7 43 -3 40 -5 42 -35 44 -33 1 -33
1 -33 -43z"/>
<path d="M761 1407 c-27 -27 0 -86 34 -73 8 3 15 1 15 -4 0 -6 -14 -10 -31
-10 -17 0 -28 -4 -24 -10 9 -14 48 -13 63 2 7 7 12 33 12 58 0 45 -1 47 -29
48 -15 0 -33 -4 -40 -11z m46 -23 c8 -21 -13 -42 -28 -27 -13 13 -5 43 11 43
6 0 13 -7 17 -16z"/>
<path d="M940 1373 c0 -50 17 -59 22 -11 4 46 28 49 28 4 0 -25 4 -36 15 -36
10 0 15 10 15 33 0 44 -10 56 -48 55 -31 -1 -32 -2 -32 -45z"/>
<path d="M1042 1408 c-13 -16 -5 -30 28 -46 24 -11 23 -12 -10 -6 -31 6 -33 5
-21 -10 16 -19 42 -21 59 -4 18 18 15 26 -15 43 -25 14 -26 16 -5 11 15 -3 22
0 19 7 -5 17 -42 20 -55 5z"/>
<path d="M1130 1359 c0 -33 4 -59 10 -59 6 0 10 9 10 20 0 13 5 18 15 14 21
-8 45 14 45 41 0 29 -18 43 -52 43 -27 0 -28 -2 -28 -59z m55 16 c0 -28 -29
-25 -33 3 -3 19 0 23 15 20 10 -2 18 -12 18 -23z"/>
<path d="M1232 1408 c-16 -16 -15 -53 3 -68 17 -14 47 -10 53 9 3 9 -2 11 -17
6 -12 -4 -21 -2 -21 4 0 6 11 11 25 11 28 0 29 3 15 31 -12 21 -40 25 -58 7z
m38 -18 c0 -5 -7 -10 -16 -10 -8 0 -12 5 -9 10 3 6 10 10 16 10 5 0 9 -4 9
-10z"/>
<path d="M1322 1408 c-6 -6 -12 -21 -12 -33 0 -41 45 -60 71 -29 11 13 9 15
-17 12 -23 -2 -29 1 -29 17 0 15 6 19 23 17 15 -1 22 2 20 10 -6 18 -41 21
-56 6z"/>
<path d="M1459 1399 c-15 -28 3 -69 30 -69 23 0 51 25 51 45 0 20 -28 45 -50
45 -11 0 -24 -10 -31 -21z m51 -24 c0 -15 -6 -25 -14 -25 -16 0 -25 19 -18 38
8 22 32 13 32 -13z"/>
<path d="M1550 1374 c0 -32 4 -44 15 -44 10 0 15 11 15 35 0 19 5 35 10 35 6
0 10 4 10 9 0 5 -11 9 -25 9 -23 0 -25 -4 -25 -44z"/>
<path d="M1776 1383 c-6 -14 -5 -15 5 -6 7 7 10 15 7 18 -3 3 -9 -2 -12 -12z"/>
<path d="M4081 1363 c-18 -36 -17 -91 3 -119 13 -17 13 -14 3 23 -8 30 -8 51
0 77 12 39 9 47 -6 19z"/>
<path d="M4120 1320 c0 -33 4 -60 10 -60 6 0 10 14 10 30 0 42 25 38 49 -7 6
-13 17 -23 23 -23 6 0 3 10 -6 25 -13 20 -14 29 -5 44 20 31 4 51 -41 51 l-40
0 0 -60z m69 37 c14 -17 4 -27 -26 -27 -16 0 -23 6 -23 20 0 23 31 27 49 7z"/>
<path d="M4619 1366 c-2 -11 -2 -39 0 -63 2 -31 7 -43 19 -43 12 0 13 3 4 12
-16 16 -15 68 1 68 8 0 9 3 1 8 -6 4 -13 14 -16 22 -4 12 -6 11 -9 -4z"/>
<path d="M4887 1368 c19 -24 22 -63 9 -100 -8 -21 -10 -38 -6 -38 11 0 30 48
30 75 0 30 -20 75 -33 75 -6 0 -6 -5 0 -12z"/>
<path d="M1747 1343 c-4 -3 -7 -11 -7 -17 0 -6 5 -5 12 2 6 6 9 14 7 17 -3 3
-9 2 -12 -2z"/>
<path d="M4242 1338 c-16 -16 -15 -53 3 -68 18 -15 47 -10 53 10 4 13 3 13
-11 2 -9 -8 -21 -11 -27 -7 -18 11 -11 25 15 25 18 0 25 5 25 19 0 28 -37 40
-58 19z m46 -16 c2 -7 -7 -12 -23 -12 -24 0 -26 2 -15 15 14 17 31 16 38 -3z"/>
<path d="M4320 1291 c0 -34 4 -61 10 -61 6 0 10 6 10 14 0 8 10 16 23 18 19 3
22 9 22 43 0 38 -2 40 -32 43 l-33 3 0 -60z m55 13 c0 -19 -5 -29 -15 -29 -16
0 -25 28 -16 51 10 25 31 10 31 -22z"/>
<path d="M4423 1343 c-19 -7 -16 -72 3 -80 37 -14 70 41 44 73 -13 14 -25 16
-47 7z m41 -26 c8 -12 7 -21 -6 -33 -20 -20 -38 -11 -38 20 0 39 23 46 44 13z"/>
<path d="M4507 1344 c-15 -15 -6 -35 20 -45 19 -7 23 -13 15 -21 -8 -8 -16 -7
-28 3 -15 12 -17 12 -12 -1 2 -8 15 -15 29 -15 34 0 37 30 3 48 -18 9 -23 17
-15 21 7 4 19 2 28 -6 14 -11 16 -11 11 2 -5 16 -39 25 -51 14z"/>
<path d="M4583 1305 c0 -27 2 -38 4 -22 2 15 2 37 0 50 -2 12 -4 0 -4 -28z"/>
<path d="M4673 1343 c-19 -7 -16 -72 3 -80 37 -14 70 41 44 73 -13 14 -25 16
-47 7z m41 -26 c8 -12 7 -21 -6 -33 -20 -20 -38 -11 -38 20 0 39 23 46 44 13z"/>
<path d="M4751 1300 c1 -41 2 -42 8 -14 16 65 32 70 54 17 14 -34 13 -40 -1
-55 -8 -10 -10 -18 -5 -18 15 0 27 18 46 69 20 52 14 70 -6 21 l-14 -32 -11
31 c-10 27 -16 31 -42 29 -29 -2 -30 -4 -29 -48z"/>
<path d="M1710 1285 c-7 -9 -8 -15 -2 -15 5 0 12 7 16 15 3 8 4 15 2 15 -2 0
-9 -7 -16 -15z"/>
<path d="M1676 1234 c-5 -14 -4 -15 9 -4 17 14 19 20 6 20 -5 0 -12 -7 -15
-16z"/>
<path d="M1647 1193 c-4 -3 -7 -11 -7 -17 0 -6 5 -5 12 2 6 6 9 14 7 17 -3 3
-9 2 -12 -2z"/>
<path d="M1610 1135 c-7 -9 -8 -15 -2 -15 5 0 12 7 16 15 3 8 4 15 2 15 -2 0
-9 -7 -16 -15z"/>
<path d="M1576 1084 c-5 -14 -4 -15 9 -4 17 14 19 20 6 20 -5 0 -12 -7 -15
-16z"/>
<path d="M1547 1043 c-4 -3 -7 -11 -7 -17 0 -6 5 -5 12 2 6 6 9 14 7 17 -3 3
-9 2 -12 -2z"/>
<path d="M1515 989 c-4 -6 -5 -12 -2 -15 2 -3 7 2 10 11 7 17 1 20 -8 4z"/>
<path d="M1476 934 c-5 -14 -4 -15 9 -4 17 14 19 20 6 20 -5 0 -12 -7 -15 -16z"/>
<path d="M1447 893 c-4 -3 -7 -11 -7 -17 0 -6 5 -5 12 2 6 6 9 14 7 17 -3 3
-9 2 -12 -2z"/>
<path d="M1415 839 c-4 -6 -5 -12 -2 -15 2 -3 7 2 10 11 7 17 1 20 -8 4z"/>
<path d="M1376 784 c-5 -14 -4 -15 9 -4 17 14 19 20 6 20 -5 0 -12 -7 -15 -16z"/>
<path d="M1347 743 c-4 -3 -7 -11 -7 -17 0 -6 5 -5 12 2 6 6 9 14 7 17 -3 3
-9 2 -12 -2z"/>
<path d="M3702 730 c-21 -20 -22 -29 -22 -185 0 -152 2 -167 20 -185 20 -20
33 -20 690 -20 657 0 670 0 690 20 18 18 20 33 20 185 0 156 -1 165 -22 185
-21 20 -31 20 -688 20 -657 0 -667 0 -688 -20z m1366 -6 c21 -15 22 -21 22
-176 0 -136 -3 -164 -17 -180 -15 -17 -50 -18 -681 -18 -605 0 -667 1 -684 17
-16 14 -18 34 -18 179 0 157 1 163 22 178 20 14 101 16 678 16 577 0 658 -2
678 -16z"/>
<path d="M3900 520 l0 -70 38 0 c48 0 72 24 72 72 0 44 -25 68 -73 68 l-37 0
0 -70z m64 44 c11 -4 16 -19 16 -44 0 -36 -12 -50 -41 -50 -5 0 -9 23 -9 50 0
50 4 55 34 44z"/>
<path d="M4100 580 c0 -5 7 -10 15 -10 8 0 15 5 15 10 0 6 -7 10 -15 10 -8 0
-15 -4 -15 -10z"/>
<path d="M4520 575 c-18 -21 -3 -52 30 -64 31 -10 38 -25 19 -36 -5 -4 -19 1
-30 11 -22 20 -38 11 -23 -14 14 -21 60 -28 80 -11 23 19 13 52 -21 69 -16 8
-32 16 -34 18 -3 1 0 7 7 14 8 8 15 8 26 -1 23 -20 42 -9 22 12 -21 21 -59 22
-76 2z"/>
<path d="M4630 580 c0 -5 7 -10 15 -10 8 0 15 5 15 10 0 6 -7 10 -15 10 -8 0
-15 -4 -15 -10z"/>
<path d="M4740 565 c0 -18 -4 -23 -15 -19 -22 9 -45 -14 -45 -46 0 -34 16 -47
58 -47 l32 0 0 69 c0 54 -3 68 -15 68 -9 0 -15 -9 -15 -25z m-2 -68 c2 -19 -1
-27 -12 -27 -20 0 -29 16 -21 41 9 27 29 19 33 -14z"/>
<path d="M4030 500 c0 -38 4 -50 15 -50 11 0 15 11 15 40 0 29 4 40 15 40 8 0
15 5 15 10 0 6 -13 10 -30 10 -29 0 -30 -1 -30 -50z"/>
<path d="M4100 500 c0 -38 4 -50 15 -50 11 0 15 12 15 50 0 38 -4 50 -15 50
-11 0 -15 -12 -15 -50z"/>
<path d="M4159 503 c10 -27 24 -48 31 -48 7 0 21 21 31 48 16 39 16 47 4 47
-8 0 -17 -11 -21 -25 -3 -14 -10 -25 -14 -25 -4 0 -11 11 -14 25 -4 14 -13 25
-21 25 -12 0 -12 -8 4 -47z"/>
<path d="M4262 538 c-7 -7 -12 -24 -12 -38 0 -47 44 -67 71 -33 13 15 11 16
-13 10 -15 -4 -30 -3 -33 3 -4 6 6 10 24 10 23 0 31 5 31 18 0 22 -19 42 -40
42 -9 0 -21 -5 -28 -12z m43 -18 c3 -5 -3 -10 -15 -10 -12 0 -18 5 -15 10 3 6
10 10 15 10 5 0 12 -4 15 -10z"/>
<path d="M4350 499 c0 -37 4 -49 15 -49 11 0 15 11 15 40 0 29 4 40 15 40 11
0 15 -11 15 -40 0 -29 4 -40 15 -40 11 0 15 11 15 39 0 45 -13 58 -57 59 -33
1 -33 0 -33 -49z"/>
<path d="M4630 500 c0 -38 4 -50 15 -50 11 0 15 12 15 50 0 38 -4 50 -15 50
-11 0 -15 -12 -15 -50z"/>
<path d="M4802 538 c-7 -7 -12 -24 -12 -38 0 -47 44 -67 71 -33 13 15 11 16
-13 10 -15 -4 -30 -3 -33 3 -4 6 6 10 24 10 23 0 31 5 31 18 0 22 -19 42 -40
42 -9 0 -21 -5 -28 -12z m43 -18 c3 -5 -3 -10 -15 -10 -12 0 -18 5 -15 10 3 6
10 10 15 10 5 0 12 -4 15 -10z"/>
<path d="M1315 689 c-4 -6 -5 -12 -2 -15 2 -3 7 2 10 11 7 17 1 20 -8 4z"/>
<path d="M2010 610 c0 -58 15 -84 22 -38 2 14 12 24 27 28 59 14 47 70 -15 70
l-34 0 0 -60z m61 25 c0 -5 -9 -11 -21 -13 -20 -3 -27 8 -13 22 10 9 34 3 34
-9z"/>
<path d="M2628 654 c-12 -12 -13 -23 -5 -60 15 -64 34 -57 31 12 -3 65 -5 69
-26 48z"/>
<path d="M2732 658 c-21 -21 -13 -39 24 -54 28 -12 34 -18 25 -27 -9 -9 -17
-8 -32 1 -25 16 -37 8 -19 -13 26 -31 90 -7 77 30 -4 8 -21 21 -39 29 -28 12
-30 15 -14 21 11 5 21 3 26 -6 11 -17 24 -5 17 16 -7 18 -48 20 -65 3z"/>
<path d="M3013 655 c-14 -27 -5 -105 12 -105 8 0 17 5 20 10 3 6 1 10 -6 10
-8 0 -10 11 -7 33 3 17 2 41 -2 52 -7 19 -7 19 -17 0z"/>
<path d="M1276 634 c-5 -14 -4 -15 9 -4 17 14 19 20 6 20 -5 0 -12 -7 -15 -16z"/>
<path d="M2127 633 c-14 -13 -6 -24 13 -18 11 4 20 2 20 -4 0 -6 -9 -11 -19
-11 -21 0 -33 -21 -22 -38 3 -6 21 -10 39 -10 29 1 32 4 32 33 0 17 -5 36 -12
43 -13 13 -41 16 -51 5z m33 -53 c0 -5 -4 -10 -10 -10 -5 0 -10 5 -10 10 0 6
5 10 10 10 6 0 10 -4 10 -10z"/>
<path d="M2200 636 c0 -2 7 -22 14 -45 14 -37 13 -41 -2 -50 -20 -11 -10 -26
12 -18 14 6 34 43 50 95 11 32 -12 27 -25 -5 l-11 -28 -10 28 c-5 15 -14 27
-19 27 -5 0 -9 -2 -9 -4z"/>
<path d="M2290 595 c0 -33 4 -45 15 -45 10 0 15 11 15 35 0 19 5 35 10 35 6 0
10 -16 10 -35 0 -24 5 -35 15 -35 10 0 15 11 15 35 0 19 5 35 10 35 6 0 10
-16 10 -35 0 -24 5 -35 15 -35 10 0 15 10 15 33 0 47 -9 54 -72 56 l-58 1 0
-45z"/>
<path d="M2439 619 c-16 -31 4 -71 33 -67 12 2 23 8 25 15 3 7 -3 9 -16 6 -12
-3 -21 -1 -21 6 0 6 11 11 25 11 27 0 33 18 13 38 -19 19 -46 14 -59 -9z m46
-9 c3 -5 -1 -10 -9 -10 -9 0 -16 5 -16 10 0 6 4 10 9 10 6 0 13 -4 16 -10z"/>
<path d="M2530 594 c0 -24 5 -44 10 -44 6 0 10 16 10 35 0 24 5 35 15 35 10 0
15 -11 15 -35 0 -19 5 -35 11 -35 6 0 9 17 7 43 -3 40 -5 42 -35 44 -33 1 -33
1 -33 -43z"/>
<path d="M2820 636 c0 -2 7 -21 16 -42 15 -35 15 -39 -2 -51 -16 -12 -16 -13
0 -19 22 -9 30 0 50 60 19 58 19 56 7 56 -5 0 -14 -12 -19 -27 l-10 -28 -11
28 c-6 15 -15 27 -21 27 -5 0 -10 -2 -10 -4z"/>
<path d="M2922 628 c-13 -16 -5 -30 28 -46 24 -11 23 -12 -10 -6 -31 6 -33 5
-21 -10 16 -19 42 -21 59 -4 18 18 15 26 -15 43 -25 14 -26 16 -5 11 15 -3 22
0 19 7 -5 17 -42 20 -55 5z"/>
<path d="M3067 633 c-11 -10 -8 -71 4 -78 14 -9 59 3 59 15 0 6 -11 8 -25 4
-15 -4 -25 -2 -25 5 0 6 11 11 25 11 27 0 33 18 13 38 -13 13 -41 16 -51 5z
m43 -23 c0 -5 -7 -10 -15 -10 -8 0 -15 5 -15 10 0 6 7 10 15 10 8 0 15 -4 15
-10z"/>
<path d="M3150 594 c0 -24 5 -44 10 -44 6 0 10 16 10 35 0 24 5 35 15 35 10 0
15 -11 15 -35 0 -19 5 -35 10 -35 6 0 10 16 10 35 0 24 5 35 15 35 10 0 15
-11 15 -35 0 -19 5 -35 11 -35 6 0 9 17 7 43 l-3 42 -57 1 -58 1 0 -43z"/>
<path d="M1247 593 c-4 -3 -7 -11 -7 -17 0 -6 5 -5 12 2 6 6 9 14 7 17 -3 3
-9 2 -12 -2z"/>
<path d="M1215 539 c-4 -6 -5 -12 -2 -15 2 -3 7 2 10 11 7 17 1 20 -8 4z"/>
<path d="M1176 484 c-5 -14 -4 -15 9 -4 17 14 19 20 6 20 -5 0 -12 -7 -15 -16z"/>
<path d="M2231 463 c-18 -36 -17 -91 3 -119 13 -17 13 -14 3 23 -8 30 -8 51 0
77 12 39 9 47 -6 19z"/>
<path d="M2270 420 c0 -33 4 -60 10 -60 6 0 10 14 10 30 0 42 25 38 49 -7 6
-13 17 -23 23 -23 6 0 3 10 -6 25 -13 20 -14 29 -5 44 20 31 4 51 -41 51 l-40
0 0 -60z m69 37 c14 -17 4 -27 -26 -27 -16 0 -23 6 -23 20 0 23 31 27 49 7z"/>
<path d="M2769 466 c-2 -11 -2 -39 0 -63 2 -31 7 -43 19 -43 12 0 13 3 4 12
-16 16 -15 68 1 68 8 0 9 3 1 8 -6 4 -13 14 -16 22 -4 12 -6 11 -9 -4z"/>
<path d="M3037 468 c19 -24 22 -63 9 -100 -8 -21 -10 -38 -6 -38 11 0 30 48
30 75 0 30 -20 75 -33 75 -6 0 -6 -5 0 -12z"/>
<path d="M1147 443 c-4 -3 -7 -11 -7 -17 0 -6 5 -5 12 2 6 6 9 14 7 17 -3 3
-9 2 -12 -2z"/>
<path d="M2392 438 c-16 -16 -15 -53 3 -68 18 -15 47 -10 53 10 4 13 3 13 -11
2 -9 -8 -21 -11 -27 -7 -18 11 -11 25 15 25 18 0 25 5 25 19 0 28 -37 40 -58
19z m46 -16 c2 -7 -7 -12 -23 -12 -24 0 -26 2 -15 15 14 17 31 16 38 -3z"/>
<path d="M2470 391 c0 -34 4 -61 10 -61 6 0 10 6 10 14 0 8 10 16 23 18 19 3
22 9 22 43 0 38 -2 40 -32 43 l-33 3 0 -60z m55 13 c0 -19 -5 -29 -15 -29 -16
0 -25 28 -16 51 10 25 31 10 31 -22z"/>
<path d="M2573 443 c-19 -7 -16 -72 3 -80 37 -14 70 41 44 73 -13 14 -25 16
-47 7z m41 -26 c8 -12 7 -21 -6 -33 -20 -20 -38 -11 -38 20 0 39 23 46 44 13z"/>
<path d="M2657 444 c-15 -15 -6 -35 20 -45 19 -7 23 -13 15 -21 -8 -8 -16 -7
-28 3 -15 12 -17 12 -12 -1 2 -8 15 -15 29 -15 34 0 37 30 3 48 -18 9 -23 17
-15 21 7 4 19 2 28 -6 14 -11 16 -11 11 2 -5 16 -39 25 -51 14z"/>
<path d="M2733 405 c0 -27 2 -38 4 -22 2 15 2 37 0 50 -2 12 -4 0 -4 -28z"/>
<path d="M2823 443 c-19 -7 -16 -72 3 -80 37 -14 70 41 44 73 -13 14 -25 16
-47 7z m41 -26 c8 -12 7 -21 -6 -33 -20 -20 -38 -11 -38 20 0 39 23 46 44 13z"/>
<path d="M2901 400 c1 -41 2 -42 8 -14 16 65 32 70 54 17 14 -34 13 -40 -1
-55 -8 -10 -10 -18 -5 -18 15 0 27 18 46 69 20 52 14 70 -6 21 l-14 -32 -11
31 c-10 27 -16 31 -42 29 -29 -2 -30 -4 -29 -48z"/>
<path d="M1115 389 c-4 -6 -5 -12 -2 -15 2 -3 7 2 10 11 7 17 1 20 -8 4z"/>
<path d="M1076 333 c-6 -14 -5 -15 5 -6 7 7 10 15 7 18 -3 3 -9 -2 -12 -12z"/>
<path d="M1045 289 c-4 -6 -5 -12 -2 -15 2 -3 7 2 10 11 7 17 1 20 -8 4z"/>
<path d="M976 183 c-6 -14 -5 -15 5 -6 7 7 10 15 7 18 -3 3 -9 -2 -12 -12z"/>
<path d="M945 139 c-4 -6 -5 -12 -2 -15 2 -3 7 2 10 11 7 17 1 20 -8 4z"/>
<path d="M876 33 c-6 -14 -5 -15 5 -6 7 7 10 15 7 18 -3 3 -9 -2 -12 -12z"/>
</g>
</svg>
